<svg width="61" height="61" viewBox="0 0 61 61" fill="none" xmlns="http://www.w3.org/2000/svg">
<path d="M58 3H60.5C60.5 1.61929 59.3807 0.5 58 0.5V3ZM26.2322 31.2322C25.2559 32.2085 25.2559 33.7915 26.2322 34.7678C27.2085 35.7441 28.7915 35.7441 29.7678 34.7678L26.2322 31.2322ZM24 10.5C25.3807 10.5 26.5 9.38071 26.5 8C26.5 6.61929 25.3807 5.5 24 5.5V10.5ZM38 0.5C36.6193 0.5 35.5 1.61929 35.5 3C35.5 4.38071 36.6193 5.5 38 5.5V0.5ZM55.5 23C55.5 24.3807 56.6193 25.5 58 25.5C59.3807 25.5 60.5 24.3807 60.5 23H55.5ZM55.5 37C55.5 35.6193 54.3807 34.5 53 34.5C51.6193 34.5 50.5 35.6193 50.5 37H55.5ZM46 55.5H10V60.5H46V55.5ZM5.50001 51L5.50006 15L0.500056 15L0.500009 51L5.50001 51ZM56.2322 1.23223L26.2322 31.2322L29.7678 34.7678L59.7678 4.76777L56.2322 1.23223ZM10.0001 10.5H24V5.5H10.0001V10.5ZM58 0.5H38V5.5H58V0.5ZM55.5 3V23H60.5V3H55.5ZM55.5 51V37H50.5V51H55.5ZM5.50006 15C5.50006 12.5147 7.51478 10.5 10.0001 10.5V5.5C4.75335 5.5 0.500063 9.75329 0.500056 15L5.50006 15ZM10 55.5C7.51473 55.5 5.50001 53.4853 5.50001 51L0.500009 51C0.500002 56.2467 4.7533 60.5 10 60.5V55.5ZM46 60.5C51.2467 60.5 55.5 56.2467 55.5 51H50.5C50.5 53.4853 48.4853 55.5 46 55.5V60.5Z" fill="#61A9DD"/>
</svg>
