<svg width="569" height="362" viewBox="0 0 569 362" fill="none" xmlns="http://www.w3.org/2000/svg">
<ellipse cx="242.5" cy="181" rx="242.5" ry="181" fill="#913D3B"/>
<path d="M194.24 164.44C188.4 164.44 182.6 163.68 176.84 162.16C171.16 160.56 166.28 158.32 162.2 155.44L169.88 140.56C173.08 142.88 176.76 144.72 180.92 146.08C185.16 147.44 189.44 148.12 193.76 148.12C198.64 148.12 202.48 147.16 205.28 145.24C208.08 143.32 209.48 140.64 209.48 137.2C209.48 135.04 208.92 133.12 207.8 131.44C206.68 129.76 204.68 128.48 201.8 127.6C199 126.72 195.04 126.28 189.92 126.28H168.44L172.76 79H224V94.6H179.72L189.8 85.72L186.8 119.44L176.72 110.56H194.48C202.8 110.56 209.48 111.72 214.52 114.04C219.64 116.28 223.36 119.36 225.68 123.28C228 127.2 229.16 131.64 229.16 136.6C229.16 141.56 227.92 146.16 225.44 150.4C222.96 154.56 219.12 157.96 213.92 160.6C208.8 163.16 202.24 164.44 194.24 164.44ZM282.887 164.44C276.247 164.44 270.127 163.4 264.527 161.32C259.007 159.16 254.167 156.12 250.007 152.2C245.927 148.28 242.727 143.68 240.407 138.4C238.167 133.12 237.047 127.32 237.047 121C237.047 114.68 238.167 108.88 240.407 103.6C242.727 98.32 245.967 93.72 250.127 89.8C254.287 85.88 259.167 82.88 264.767 80.8C270.367 78.64 276.527 77.56 283.247 77.56C290.687 77.56 297.367 78.8 303.287 81.28C309.287 83.76 314.327 87.36 318.407 92.08L305.927 103.6C302.887 100.4 299.567 98.04 295.967 96.52C292.367 94.92 288.447 94.12 284.207 94.12C280.127 94.12 276.407 94.76 273.047 96.04C269.687 97.32 266.767 99.16 264.287 101.56C261.887 103.96 260.007 106.8 258.647 110.08C257.367 113.36 256.727 117 256.727 121C256.727 124.92 257.367 128.52 258.647 131.8C260.007 135.08 261.887 137.96 264.287 140.44C266.767 142.84 269.647 144.68 272.927 145.96C276.287 147.24 279.967 147.88 283.967 147.88C287.807 147.88 291.527 147.28 295.127 146.08C298.807 144.8 302.367 142.68 305.807 139.72L316.847 153.76C312.287 157.2 306.967 159.84 300.887 161.68C294.887 163.52 288.887 164.44 282.887 164.44ZM299.087 151.24V119.68H316.847V153.76L299.087 151.24Z" fill="white"/>
<path d="M74.3 239L68.78 197H76.52L81.44 234.92H77.42L97.88 197H105.14L110 234.92H106.22L126.5 197H134.24L111.98 239H103.64L98.96 204.8H101.3L82.64 239H74.3ZM131.767 239L138.127 206.96H145.627L139.267 239H131.767ZM143.587 201.68C142.227 201.68 141.127 201.28 140.287 200.48C139.487 199.64 139.087 198.64 139.087 197.48C139.087 196.12 139.547 194.98 140.467 194.06C141.427 193.14 142.667 192.68 144.187 192.68C145.507 192.68 146.587 193.08 147.427 193.88C148.267 194.64 148.687 195.58 148.687 196.7C148.687 198.18 148.227 199.38 147.307 200.3C146.387 201.22 145.147 201.68 143.587 201.68ZM160.031 239.42C157.231 239.42 154.611 239.08 152.171 238.4C149.731 237.72 147.851 236.9 146.531 235.94L149.651 230.18C150.971 231.1 152.611 231.86 154.571 232.46C156.571 233.02 158.651 233.3 160.811 233.3C163.291 233.3 165.111 232.96 166.271 232.28C167.471 231.6 168.071 230.66 168.071 229.46C168.071 228.58 167.651 227.92 166.811 227.48C165.971 227.04 164.891 226.68 163.571 226.4C162.291 226.12 160.891 225.82 159.371 225.5C157.891 225.18 156.491 224.74 155.171 224.18C153.891 223.62 152.831 222.8 151.991 221.72C151.151 220.64 150.731 219.2 150.731 217.4C150.731 215.12 151.371 213.18 152.651 211.58C153.931 209.98 155.711 208.76 157.991 207.92C160.311 207.04 162.971 206.6 165.971 206.6C168.131 206.6 170.251 206.84 172.331 207.32C174.411 207.8 176.131 208.48 177.491 209.36L174.731 215.12C173.291 214.2 171.731 213.56 170.051 213.2C168.411 212.84 166.811 212.66 165.251 212.66C162.811 212.66 160.991 213.04 159.791 213.8C158.631 214.52 158.051 215.44 158.051 216.56C158.051 217.44 158.471 218.12 159.311 218.6C160.151 219.08 161.211 219.48 162.491 219.8C163.811 220.08 165.211 220.38 166.691 220.7C168.211 220.98 169.611 221.4 170.891 221.96C172.211 222.52 173.291 223.34 174.131 224.42C174.971 225.46 175.391 226.86 175.391 228.62C175.391 230.94 174.731 232.92 173.411 234.56C172.131 236.16 170.331 237.38 168.011 238.22C165.691 239.02 163.031 239.42 160.031 239.42ZM190.91 239.42C188.11 239.42 185.49 239.08 183.05 238.4C180.61 237.72 178.73 236.9 177.41 235.94L180.53 230.18C181.85 231.1 183.49 231.86 185.45 232.46C187.45 233.02 189.53 233.3 191.69 233.3C194.17 233.3 195.99 232.96 197.15 232.28C198.35 231.6 198.95 230.66 198.95 229.46C198.95 228.58 198.53 227.92 197.69 227.48C196.85 227.04 195.77 226.68 194.45 226.4C193.17 226.12 191.77 225.82 190.25 225.5C188.77 225.18 187.37 224.74 186.05 224.18C184.77 223.62 183.71 222.8 182.87 221.72C182.03 220.64 181.61 219.2 181.61 217.4C181.61 215.12 182.25 213.18 183.53 211.58C184.81 209.98 186.59 208.76 188.87 207.92C191.19 207.04 193.85 206.6 196.85 206.6C199.01 206.6 201.13 206.84 203.21 207.32C205.29 207.8 207.01 208.48 208.37 209.36L205.61 215.12C204.17 214.2 202.61 213.56 200.93 213.2C199.29 212.84 197.69 212.66 196.13 212.66C193.69 212.66 191.87 213.04 190.67 213.8C189.51 214.52 188.93 215.44 188.93 216.56C188.93 217.44 189.35 218.12 190.19 218.6C191.03 219.08 192.09 219.48 193.37 219.8C194.69 220.08 196.09 220.38 197.57 220.7C199.09 220.98 200.49 221.4 201.77 221.96C203.09 222.52 204.17 223.34 205.01 224.42C205.85 225.46 206.27 226.86 206.27 228.62C206.27 230.94 205.61 232.92 204.29 234.56C203.01 236.16 201.21 237.38 198.89 238.22C196.57 239.02 193.91 239.42 190.91 239.42ZM226.949 239.42C223.749 239.42 220.969 238.84 218.609 237.68C216.249 236.48 214.409 234.84 213.089 232.76C211.809 230.64 211.169 228.16 211.169 225.32C211.169 221.68 211.969 218.46 213.569 215.66C215.169 212.86 217.349 210.66 220.109 209.06C222.909 207.42 226.089 206.6 229.649 206.6C232.649 206.6 235.249 207.16 237.449 208.28C239.649 209.4 241.349 211.02 242.549 213.14C243.789 215.22 244.409 217.72 244.409 220.64C244.409 221.4 244.369 222.18 244.289 222.98C244.209 223.78 244.089 224.52 243.929 225.2H216.749L217.589 220.22H240.389L237.329 221.9C237.649 219.86 237.509 218.16 236.909 216.8C236.309 215.44 235.349 214.4 234.029 213.68C232.709 212.96 231.129 212.6 229.289 212.6C227.089 212.6 225.169 213.12 223.529 214.16C221.929 215.16 220.689 216.6 219.809 218.48C218.929 220.32 218.489 222.48 218.489 224.96C218.489 227.56 219.229 229.56 220.709 230.96C222.229 232.36 224.569 233.06 227.729 233.06C229.529 233.06 231.249 232.78 232.889 232.22C234.529 231.62 235.889 230.8 236.969 229.76L240.089 234.98C238.409 236.46 236.409 237.58 234.089 238.34C231.809 239.06 229.429 239.42 226.949 239.42ZM271.837 206.6C274.597 206.6 276.937 207.16 278.857 208.28C280.777 209.4 282.117 211.06 282.877 213.26C283.677 215.42 283.757 218.08 283.117 221.24L279.577 239H272.077L275.557 221.42C276.077 218.82 275.837 216.8 274.837 215.36C273.837 213.88 272.017 213.14 269.377 213.14C266.617 213.14 264.337 213.9 262.537 215.42C260.737 216.94 259.517 219.26 258.877 222.38L255.517 239H248.017L254.377 206.96H261.517L259.717 216.08L258.517 213.2C260.037 210.92 261.937 209.26 264.217 208.22C266.537 207.14 269.077 206.6 271.837 206.6ZM300.012 239.42C297.212 239.42 294.592 239.08 292.152 238.4C289.712 237.72 287.832 236.9 286.512 235.94L289.632 230.18C290.952 231.1 292.592 231.86 294.552 232.46C296.552 233.02 298.632 233.3 300.792 233.3C303.272 233.3 305.092 232.96 306.252 232.28C307.452 231.6 308.052 230.66 308.052 229.46C308.052 228.58 307.632 227.92 306.792 227.48C305.952 227.04 304.872 226.68 303.552 226.4C302.272 226.12 300.872 225.82 299.352 225.5C297.872 225.18 296.472 224.74 295.152 224.18C293.872 223.62 292.812 222.8 291.972 221.72C291.132 220.64 290.712 219.2 290.712 217.4C290.712 215.12 291.352 213.18 292.632 211.58C293.912 209.98 295.692 208.76 297.972 207.92C300.292 207.04 302.952 206.6 305.952 206.6C308.112 206.6 310.232 206.84 312.312 207.32C314.392 207.8 316.112 208.48 317.472 209.36L314.712 215.12C313.272 214.2 311.712 213.56 310.032 213.2C308.392 212.84 306.792 212.66 305.232 212.66C302.792 212.66 300.972 213.04 299.772 213.8C298.612 214.52 298.032 215.44 298.032 216.56C298.032 217.44 298.452 218.12 299.292 218.6C300.132 219.08 301.192 219.48 302.472 219.8C303.792 220.08 305.192 220.38 306.672 220.7C308.192 220.98 309.592 221.4 310.872 221.96C312.192 222.52 313.272 223.34 314.112 224.42C314.952 225.46 315.372 226.86 315.372 228.62C315.372 230.94 314.712 232.92 313.392 234.56C312.112 236.16 310.312 237.38 307.992 238.22C305.672 239.02 303.012 239.42 300.012 239.42ZM319.97 239L328.85 194.48H336.35L332.39 214.4L330.05 222.74L328.85 230.3L327.11 239H319.97ZM339.35 239.42C336.71 239.42 334.43 238.96 332.51 238.04C330.59 237.08 329.11 235.68 328.07 233.84C327.03 232 326.51 229.72 326.51 227C326.51 224 326.87 221.26 327.59 218.78C328.35 216.26 329.45 214.1 330.89 212.3C332.37 210.46 334.13 209.06 336.17 208.1C338.25 207.1 340.61 206.6 343.25 206.6C345.89 206.6 348.27 207.16 350.39 208.28C352.51 209.36 354.19 210.96 355.43 213.08C356.71 215.16 357.35 217.68 357.35 220.64C357.35 223.36 356.89 225.86 355.97 228.14C355.09 230.42 353.83 232.4 352.19 234.08C350.55 235.76 348.63 237.08 346.43 238.04C344.27 238.96 341.91 239.42 339.35 239.42ZM338.75 233C340.91 233 342.81 232.5 344.45 231.5C346.09 230.46 347.39 229.04 348.35 227.24C349.31 225.44 349.79 223.36 349.79 221C349.79 218.52 349.05 216.56 347.57 215.12C346.09 213.68 344.01 212.96 341.33 212.96C339.21 212.96 337.31 213.48 335.63 214.52C333.99 215.52 332.69 216.92 331.73 218.72C330.77 220.52 330.29 222.6 330.29 224.96C330.29 227.44 331.03 229.4 332.51 230.84C333.99 232.28 336.07 233 338.75 233ZM376.943 239.42C373.823 239.42 371.083 238.84 368.723 237.68C366.403 236.48 364.603 234.84 363.323 232.76C362.043 230.64 361.403 228.16 361.403 225.32C361.403 221.72 362.223 218.52 363.863 215.72C365.503 212.88 367.743 210.66 370.583 209.06C373.463 207.42 376.743 206.6 380.423 206.6C383.583 206.6 386.323 207.18 388.643 208.34C391.003 209.46 392.823 211.08 394.103 213.2C395.383 215.28 396.023 217.76 396.023 220.64C396.023 224.2 395.203 227.4 393.563 230.24C391.923 233.08 389.663 235.32 386.783 236.96C383.943 238.6 380.663 239.42 376.943 239.42ZM377.423 233C379.583 233 381.483 232.5 383.123 231.5C384.763 230.46 386.063 229.04 387.023 227.24C387.983 225.44 388.463 223.36 388.463 221C388.463 218.52 387.723 216.56 386.243 215.12C384.763 213.68 382.683 212.96 380.003 212.96C377.883 212.96 375.983 213.48 374.303 214.52C372.663 215.52 371.363 216.92 370.403 218.72C369.443 220.52 368.963 222.6 368.963 224.96C368.963 227.48 369.703 229.46 371.183 230.9C372.663 232.3 374.743 233 377.423 233ZM411.775 239.42C409.695 239.42 407.895 238.98 406.375 238.1C404.895 237.18 403.815 235.9 403.135 234.26C402.495 232.58 402.395 230.6 402.835 228.32L408.535 199.88H416.035L410.335 228.26C410.095 229.74 410.255 230.94 410.815 231.86C411.375 232.78 412.435 233.24 413.995 233.24C414.715 233.24 415.435 233.14 416.155 232.94C416.915 232.7 417.595 232.38 418.195 231.98L419.515 237.5C418.395 238.22 417.155 238.72 415.795 239C414.435 239.28 413.095 239.42 411.775 239.42ZM400.675 213.2L401.875 207.2H423.175L421.975 213.2H400.675Z" fill="white"/>
<path d="M568.043 275.299C506.893 260.606 494.26 259.958 468.307 230.501L388.865 309.807C472.053 307.108 488.302 302.602 568.043 275.299Z" fill="#913D3B"/>
</svg>
