<svg width="13" height="23" viewBox="0 0 13 23" fill="none" xmlns="http://www.w3.org/2000/svg">
<path d="M7.61176 16.0153H4.15896C4.15896 15.1239 4.22263 14.3599 4.34997 13.7232C4.4871 13.0865 4.71239 12.5135 5.02583 12.0041C5.33928 11.485 5.76047 10.956 6.28941 10.4173C6.70081 9.99611 7.06813 9.59941 7.39137 9.22719C7.71461 8.84518 7.96928 8.44848 8.15539 8.03708C8.3513 7.62568 8.44925 7.15551 8.44925 6.62657C8.44925 6.03886 8.36599 5.5491 8.19947 5.1573C8.03295 4.75569 7.78807 4.45204 7.46483 4.24634C7.14159 4.04065 6.73999 3.9378 6.26003 3.9378C5.87801 3.9378 5.51069 4.03085 5.15807 4.21696C4.80544 4.39327 4.51648 4.67243 4.2912 5.05445C4.0757 5.43646 3.95816 5.93601 3.93857 6.55311H0.103757C0.123347 5.26015 0.402509 4.18757 0.941244 3.33539C1.48977 2.47342 2.22441 1.83183 3.14516 1.41064C4.0757 0.979653 5.11399 0.764159 6.26003 0.764159C7.5236 0.764159 8.60597 0.989448 9.50713 1.44003C10.4083 1.88081 11.0988 2.52729 11.5788 3.37947C12.0588 4.23165 12.2988 5.26504 12.2988 6.47965C12.2988 7.34162 12.1371 8.11054 11.8139 8.78641C11.5004 9.46228 11.0842 10.0941 10.565 10.6818C10.0557 11.2597 9.50713 11.8474 8.91942 12.4449C8.41007 12.9445 8.06724 13.4783 7.89092 14.0464C7.72441 14.6145 7.63135 15.2708 7.61176 16.0153ZM3.82103 20.57C3.82103 19.9823 4.01203 19.4925 4.39404 19.1007C4.78585 18.6991 5.30989 18.4983 5.96617 18.4983C6.63224 18.4983 7.15628 18.6991 7.5383 19.1007C7.92031 19.4925 8.11131 19.9823 8.11131 20.57C8.11131 21.1479 7.92031 21.6377 7.5383 22.0393C7.15628 22.4311 6.63224 22.627 5.96617 22.627C5.30989 22.627 4.78585 22.4311 4.39404 22.0393C4.01203 21.6377 3.82103 21.1479 3.82103 20.57Z" fill="#004488"/>
</svg>
