<svg width="20" height="20" viewBox="0 0 125 102" fill="none" xmlns="http://www.w3.org/2000/svg">
<path d="M122.679 50.0715L2.44208 1.97683C1.58833 1.63533 0.76504 2.53008 1.17626 3.35252L25 51L1.17626 98.6475C0.76504 99.4699 1.58833 100.365 2.44208 100.023L122.679 51.9285C123.517 51.5932 123.517 50.4068 122.679 50.0715Z" fill="#747bff"/>
<path d="M2.44208 1.97683L122.679 50.0715M2.44208 1.97683C1.58833 1.63533 0.76504 2.53008 1.17626 3.35252M2.44208 1.97683V1.97683C1.58833 1.63533 0.76504 2.53008 1.17626 3.35252V3.35252M122.679 50.0715C123.517 50.4068 123.517 51.5932 122.679 51.9285M122.679 50.0715V50.0715C123.517 50.4068 123.517 51.5932 122.679 51.9285V51.9285M122.679 51.9285L2.44208 100.023M2.44208 100.023C1.58833 100.365 0.76504 99.4699 1.17626 98.6475M2.44208 100.023V100.023C1.58833 100.365 0.765041 99.4699 1.17626 98.6475V98.6475M1.17626 98.6475L25 51L1.17626 3.35252" stroke="#747bff" stroke-width="2"/>
</svg>